<svg fill="#d81e06" viewBox="0 0 1024 1024" version="1.1" xmlns="http://www.w3.org/2000/svg" p-id="5041" xmlns:xlink="http://www.w3.org/1999/xlink">
  <path d="M512 64C264.64 64 64 264.576 64 512c0 247.36 200.64 448 448 448 247.488 0 448-200.64 448-448C960 264.576 759.488 64 512 64zM698.24 640.128c16.64 16.64 17.152 43.2 1.024 59.264-16 16.128-42.496 15.552-59.136-1.088L512 570.176 383.872 698.24c-16.64 16.704-43.264 17.216-59.264 1.216-16-16.064-15.488-42.624 1.28-59.328l128-128L325.76 384C308.992 367.232 308.608 340.736 324.608 324.672 340.608 308.544 367.232 309.12 383.872 325.76l128.192 128.128 128.064-128.064c16.512-16.768 43.264-17.216 59.264-1.152 16 16 15.616 42.56-1.152 59.264L570.112 512 698.24 640.128z" p-id="5042"></path>
</svg>