<svg xmlns="http://www.w3.org/2000/svg" width="20" viewBox="0 0 290.26 290.26"><rect fill="none" x="66.33" y="60.11" width="157.64" height="161.7"/><path fill="#ddd" d="M659.95,231.48c-.22-5.27-3.66-8.18-8.21-8.07s-7.47,3.07-7.89,8.45c-.31,4,0,8-.13,11.93-.22,10-2.38,12.29-12.35,12.48-9.61.19-19.23.06-28.84.06q-33.32,0-66.64,0c-15.3,0-16.62-1.34-16.7-16.21,0-2.65.12-5.32-.12-8-.52-5.6-3.14-8.52-7.59-8.77-4.8-.27-8.3,3-8.66,8.76-.34,5.28-.15,10.61-.11,15.91.11,17.17,7.72,24.88,24.9,25,17.9.1,35.81,0,53.71,0h15.91c13.59,0,27.19.18,40.78-.08,12-.23,20.74-7.16,21.75-17.67a173.9,173.9,0,0,0,.2-23.84Zm0,0" transform="translate(-436.31 -51.55)"/><path fill="#ddd" d="M520.94,178.68,572.22,230c.7.7,1.42,1.39,2.11,2.1,2.75,2.79,6,4.36,9.85,2.89a8.23,8.23,0,0,0,3-2,11.88,11.88,0,0,0,1.53-1.23c8.79-8.55,46.24-46.11,54.89-54.8a20.84,20.84,0,0,0,2.56-3c2.35-3.5,2-6.92-.76-10s-6.45-3.26-10-1.52a18.81,18.81,0,0,0-4.54,3.79c-5.82,5.78-26.89,26.82-41,40.94q0-33.09,0-66.18c0-6.62.21-13.26-.12-19.87-.31-6.14-3.29-9.27-8.08-9.43s-7.91,2.84-8.58,8.89a63.36,63.36,0,0,0-.12,6.95q0,21.86,0,43.72,0,16.35,0,32.69l-2.27,1q-6.57-6.55-13.14-13.09c-9.14-9.13-18.16-18.38-27.45-27.34-4.2-4-9.06-4.11-12.41-.93-3.6,3.43-3.48,7.51.45,12.31a39.7,39.7,0,0,0,2.77,2.85Zm0,0" transform="translate(-436.31 -51.55)"/><path fill="#ddd" d="M581.45,341.81c-80,0-145.13-65.11-145.13-145.13S501.42,51.55,581.45,51.55s145.13,65.11,145.13,145.13S661.47,341.81,581.45,341.81Zm0-274.9A129.77,129.77,0,1,0,711.22,196.68,129.92,129.92,0,0,0,581.45,66.91Z" transform="translate(-436.31 -51.55)"/></svg>